:SAMPLES-PER-SECOND 30
:FULLY-SPECIFIED
:DEGREES
234
root  34.80782096 36.56575361 -14.28645126 9.264984131 -3.252685308 3.756835222
lowerback  -7.826635838 -0.1290670931 -1.60348022
upperback  -3.909499884 0.5233460069 -4.638329983
thorax  0.38251701 0.4560216069 -3.853029966
lowerneck  -7.245830059 -14.61089993 -9.705960274
upperneck  13.69519997 -20.41909981 13.08310032
head  7.775559902 -9.183970451 3.621789932
lclavicle  0 -4.497500157e-015 -2.743230041e-014
lhumerus  -47.20930099 30.76980019 61.7859993
lradius  -0.1204856187 -6.507048965e-006 29.52459908
lwrist  3.192251654e-007 -3.790274832e-007 -29.34770012
lhand  -4.419094784e-031 -36.95949936 -10.73480034
lfingers  90 7.125020027 -90
lthumb  94.85676144 -25.56741503 101.1382029
rclavicle  0 -4.497500157e-015 -2.743230041e-014
rhumerus  -5.214500427 -34.97529984 -31.37800026
rradius  -5.16745672e-007 2.214343908e-008 67.00499725
rwrist  0.0003490542294 -0.002273720223 -173.8329926
rhand  -1.769738713e-031 3.936939955 -7.353980064
rfingers  -90 -7.125020027 -90
rthumb  -85.08771204 -8.656589792 -60.27247766
rfemur  -10.74821377 15.17009926 12.77142048
rtibia  -0.5212168097 -0.998349309 18.4679203
rfoot  1.347019672 -21.11296272 -35.98856735
rtoes  3.807813538 19.64875639 -101.1962278
lfemur  -4.028094769 -17.19032478 -22.47453308
ltibia  6.37399292 -0.5369206667 8.264796257
lfoot  0.479659915 -21.38290596 36.27907944
ltoes  -8.653079154 -18.10070802 -116.0968682
235
root  34.80713912 36.56694307 -14.28964119 9.255916595 -3.229643822 3.74388361
lowerback  -7.822006702 -0.1265350431 -1.621249914
upperback  -3.891520023 0.5258489847 -4.627679825
thorax  0.3978019953 0.4565352798 -3.83149004
lowerneck  -7.263410091 -14.58150005 -9.707940102
upperneck  13.62150002 -20.36829948 13.05630016
head  7.745419979 -9.167490005 3.621079922
lclavicle  0 -4.497500157e-015 -2.743230041e-014
lhumerus  -47.15510178 30.7220993 61.8730011
lradius  -0.1207692623 -6.507048965e-006 29.52449989
lwrist  3.192251654e-007 -3.790274832e-007 -29.24580002
lhand  -4.417807257e-031 -36.93730164 -10.78250027
lfingers  90 7.125020027 -90
lthumb  94.85652206 -25.61495088 101.1188686
rclavicle  0 -4.497500157e-015 -2.743230041e-014
rhumerus  -6.416210175 -34.64840317 -30.98919868
rradius  -5.16745672e-007 2.214343908e-008 68.16739655
rwrist  0.0003490542294 -0.002273720223 -174.2740021
rhand  -1.769628806e-031 3.884890079 -7.297520161
rfingers  -90 -7.125020027 -90
rthumb  -85.07136118 -8.702283751 -60.31895978
rfemur  -10.71814728 15.14964008 12.78144455
rtibia  -0.5145559907 -1.012067199 18.42367554
rfoot  1.34013319 -21.13554955 -36.0483551
rtoes  3.850446632 19.64076271 -101.3230413
lfemur  -4.234986782 -17.20394325 -22.36326408
ltibia  6.20361948 -0.5338874459 8.596426964
lfoot  0.4971982837 -21.53396225 36.2473259
ltoes  -8.652077574 -18.10117431 -116.0936445
236
root  34.80666453 36.56722842 -14.29246617 9.247403145 -3.211931705 3.763947964
lowerback  -7.822157383 -0.1286814362 -1.598152041
upperback  -3.874219894 0.515977025 -4.615699768
thorax  0.4120320082 0.4571411908 -3.832839966
lowerneck  -7.292180061 -14.5468998 -9.707220078
upperneck  13.58310032 -20.3144989 13.04279995
head  7.729750156 -9.145310402 3.626644135
lclavicle  0 -4.497500157e-015 -2.743230041e-014
lhumerus  -47.16329956 30.77409935 61.8390007
lradius  -0.1210045964 -6.507048965e-006 29.49429893
lwrist  3.192251654e-007 -3.790274832e-007 -29.28319931
lhand  -4.417320405e-031 -36.92890167 -10.82409954
lfingers  90 7.125020027 -90
lthumb  94.86143285 -25.65617045 101.1136264
rclavicle  0 -4.497500157e-015 -2.743230041e-014
rhumerus  -7.595190048 -34.26760101 -30.67009735
rradius  -5.16745672e-007 2.214343908e-008 69.39379883
rwrist  0.0003490542294 -0.002273720223 -174.4109955
rhand  -1.76984499e-031 3.986619949 -7.211589813
rfingers  -90 -7.125020027 -90
rthumb  -85.00479824 -8.783324542 -60.21322894
rfemur  -10.726017 15.11446381 12.77183533
rtibia  -0.5335438251 -1.020376921 18.45647621
rfoot  1.325918078 -21.14122391 -36.04543304
rtoes  3.838980138 19.6429218 -101.288929
lfemur  -4.188991547 -17.19557571 -22.40421104
ltibia  6.24403286 -0.5357891917 8.52093792
lfoot  0.4848611653 -21.50654221 36.21050644
ltoes  -8.646680235 -18.10368589 -116.0762739
237
root  34.80692285 36.5665586 -14.29618175 9.218444824 -3.209878683 3.75735569
lowerback  -7.836150169 -0.1327824891 -1.587539673
upperback  -3.870369911 0.5169969797 -4.601930141
thorax  0.4237639904 0.4577685595 -3.824160099
lowerneck  -7.286950111 -14.52060032 -9.741930008
upperneck  13.52859974 -20.2675972 13.01910019
head  7.706280231 -9.132229805 3.632762909
lclavicle  0 -4.497500157e-015 -2.743230041e-014
lhumerus  -47.20569992 30.81049919 61.84059906
lradius  -0.1211937964 -6.507048965e-006 29.50329971
lwrist  3.192251654e-007 -3.790274832e-007 -29.31809998
lhand  -4.42057567e-031 -36.98500061 -10.80420017
lfingers  90 7.125020027 -90
lthumb  94.88365101 -25.63459132 101.1719267
rclavicle  0 -4.497500157e-015 -2.743230041e-014
rhumerus  -8.755810738 -33.89630127 -30.38779831
rradius  -5.16745672e-007 2.214343908e-008 70.6147995
rwrist  0.0003490542294 -0.002273720223 -174.625
rhand  -1.769946837e-031 4.033649921 -7.026569843
rfingers  -90 -7.125020027 -90
rthumb  -84.90074644 -8.946739628 -60.15300309
rfemur  -10.70492172 15.12707806 12.78946972
rtibia  -0.5347736478 -0.994592607 18.46154022
rfoot  1.334530473 -21.09275436 -36.04611588
rtoes  3.822774898 19.64596171 -101.2407252
lfemur  -4.219295502 -17.25759125 -22.38061333
ltibia  6.190422058 -0.5561878085 8.624091148
lfoot  0.4856403172 -21.50875854 36.23990631
ltoes  -8.659702993 -18.09762257 -116.1181898
238
root  34.80668256 36.56538115 -14.29884603 9.184474945 -3.196086884 3.762800217
lowerback  -7.841608524 -0.136530906 -1.581151128
upperback  -3.868789911 0.511367023 -4.578299999
thorax  0.4279679954 0.4583465159 -3.803539991
lowerneck  -7.285620213 -14.50269985 -9.784910202
upperneck  13.47490025 -20.23230171 12.99979973
head  7.686480045 -9.124409676 3.634269953
lclavicle  0 -4.497500157e-015 -2.743230041e-014
lhumerus  -47.25419998 30.77540016 61.89210129
lradius  -0.1213390976 -6.507048965e-006 29.55330086
lwrist  3.192251654e-007 -3.790274832e-007 -29.2677002
lhand  -4.423455499e-031 -37.03450012 -10.76140022
lfingers  90 7.125020027 -90
lthumb  94.89771407 -25.59079672 101.2208622
rclavicle  0 -4.497500157e-015 -2.743230041e-014
rhumerus  -9.953469276 -33.59109879 -30.1128006
rradius  -5.16745672e-007 2.214343908e-008 71.76370239
rwrist  0.0003490542294 -0.002273720223 -175.0279999
rhand  -1.769905026e-031 4.014410019 -7.018290043
rfingers  -90 -7.125020027 -90
rthumb  -84.90109984 -8.952700817 -60.17106285
rfemur  -10.67871571 15.12835217 12.79538536
rtibia  -0.5371522903 -0.9888487458 18.48025894
rfoot  1.323720694 -21.09738731 -36.06385803
rtoes  3.834813462 19.6437047 -101.2765342
lfemur  -4.119227886 -17.25657845 -22.41880226
ltibia  6.246003628 -0.5448051691 8.507160187
lfoot  0.4822362065 -21.49396706 36.26817322
ltoes  -8.664129034 -18.09555923 -116.1324389
